{
    "asset" : {
        "generator" : "Khronos glTF Blender I/O v3.4.50",
        "version" : "2.0"
    },
    "scene" : 0,
    "scenes" : [
        {
            "name" : "Scene",
            "nodes" : [
                0,
                1,
                7
            ]
        }
    ],
    "nodes" : [
        {
            "name" : "Lighting",
            "translation" : [
                0,
                2,
                0
            ]
        },
        {
            "name" : "ChessBoard",
            "translation" : [
                0,
                2,
                0
            ]
        },
        {
            "name" : "White Knights"
        },
        {
            "mesh" : 0,
            "name" : "PrimaryWhiteBishop.001",
            "scale" : [
                0.23616273701190948,
                0.23616273701190948,
                0.23616273701190948
            ],
            "translation" : [
                0,
                -2,
                0
            ]
        },
        {
            "children" : [
                3
            ],
            "name" : "WhiteBishops"
        },
        {
            "name" : "WhitePawns"
        },
        {
            "name" : "WhiteRooks"
        },
        {
            "children" : [
                2,
                4,
                5,
                6
            ],
            "name" : "WhitePieces",
            "translation" : [
                0,
                2,
                0
            ]
        }
    ],
    "materials" : [
        {
            "doubleSided" : true,
            "name" : "Material",
            "pbrMetallicRoughness" : {
                "baseColorFactor" : [
                    0.8387982249259949,
                    0.8387984037399292,
                    0.8387991189956665,
                    1
                ],
                "metallicFactor" : 0,
                "roughnessFactor" : 0.5
            }
        }
    ],
    "meshes" : [
        {
            "name" : "Sphere.001",
            "primitives" : [
                {
                    "attributes" : {
                        "POSITION" : 0,
                        "NORMAL" : 1
                    },
                    "indices" : 2,
                    "material" : 0
                }
            ]
        }
    ],
    "accessors" : [
        {
            "bufferView" : 0,
            "componentType" : 5126,
            "count" : 650,
            "max" : [
                8.468740463256836,
                33.242530822753906,
                8.46873950958252
            ],
            "min" : [
                -8.468732833862305,
                1.9073486328125e-06,
                -8.468733787536621
            ],
            "type" : "VEC3"
        },
        {
            "bufferView" : 1,
            "componentType" : 5126,
            "count" : 650,
            "type" : "VEC3"
        },
        {
            "bufferView" : 2,
            "componentType" : 5123,
            "count" : 984,
            "type" : "SCALAR"
        }
    ],
    "bufferViews" : [
        {
            "buffer" : 0,
            "byteLength" : 7800,
            "byteOffset" : 0,
            "target" : 34962
        },
        {
            "buffer" : 0,
            "byteLength" : 7800,
            "byteOffset" : 7800,
            "target" : 34962
        },
        {
            "buffer" : 0,
            "byteLength" : 1968,
            "byteOffset" : 15600,
            "target" : 34963
        }
    ],
    "buffers" : [
        {
            "byteLength" : 17568,
            "uri" : "data:application/octet-stream;base64,"
        }
    ]
}
