{
    "asset" : {
        "generator" : "Khronos glTF Blender I/O v3.4.50",
        "version" : "2.0"
    },
    "scene" : 0,
    "scenes" : [
        {
            "name" : "Scene",
            "nodes" : [
                0,
                1,
                7
            ]
        }
    ],
    "nodes" : [
        {
            "name" : "Lighting",
            "translation" : [
                0,
                2,
                0
            ]
        },
        {
            "name" : "ChessBoard",
            "translation" : [
                0,
                2,
                0
            ]
        },
        {
            "mesh" : 0,
            "name" : "WhiteKnight.001",
            "scale" : [
                1.3333333730697632,
                1.3333333730697632,
                1.3333333730697632
            ],
            "translation" : [
                0,
                -1.9999998807907104,
                0
            ]
        },
        {
            "children" : [
                2
            ],
            "name" : "White Knights"
        },
        {
            "name" : "WhiteBishops"
        },
        {
            "name" : "WhitePawns"
        },
        {
            "name" : "WhiteRooks"
        },
        {
            "children" : [
                3,
                4,
                5,
                6
            ],
            "name" : "WhitePieces",
            "translation" : [
                0,
                2,
                0
            ]
        }
    ],
    "materials" : [
        {
            "doubleSided" : true,
            "name" : "Material",
            "pbrMetallicRoughness" : {
                "baseColorFactor" : [
                    0.05126940459012985,
                    0.05126941576600075,
                    0.05126946046948433,
                    1
                ],
                "metallicFactor" : 0,
                "roughnessFactor" : 0.5
            }
        }
    ],
    "meshes" : [
        {
            "name" : "Cylinder.001",
            "primitives" : [
                {
                    "attributes" : {
                        "POSITION" : 0,
                        "NORMAL" : 1
                    },
                    "indices" : 2,
                    "material" : 0
                }
            ]
        }
    ],
    "accessors" : [
        {
            "bufferView" : 0,
            "componentType" : 5126,
            "count" : 861,
            "max" : [
                1.5,
                5.0126543045043945,
                1.5000004768371582
            ],
            "min" : [
                -1.5,
                0,
                -1.4999995231628418
            ],
            "type" : "VEC3"
        },
        {
            "bufferView" : 1,
            "componentType" : 5126,
            "count" : 861,
            "type" : "VEC3"
        },
        {
            "bufferView" : 2,
            "componentType" : 5123,
            "count" : 1299,
            "type" : "SCALAR"
        }
    ],
    "bufferViews" : [
        {
            "buffer" : 0,
            "byteLength" : 10332,
            "byteOffset" : 0,
            "target" : 34962
        },
        {
            "buffer" : 0,
            "byteLength" : 10332,
            "byteOffset" : 10332,
            "target" : 34962
        },
        {
            "buffer" : 0,
            "byteLength" : 2598,
            "byteOffset" : 20664,
            "target" : 34963
        }
    ],
    "buffers" : [
        {
            "byteLength" : 23264,
            "uri" : "data:application/octet-stream;base64,"
        }
    ]
}
