{
    "asset" : {
        "generator" : "Khronos glTF Blender I/O v3.4.50",
        "version" : "2.0"
    },
    "scene" : 0,
    "scenes" : [
        {
            "name" : "Scene",
            "nodes" : [
                0
            ]
        }
    ],
    "nodes" : [
        {
            "mesh" : 0,
            "name" : "PrimaryWhitePawn.007",
            "scale" : [
                0.7249184846878052,
                0.7249184846878052,
                0.7249184846878052
            ]
        }
    ],
    "materials" : [
        {
            "doubleSided" : true,
            "name" : "White Piece",
            "pbrMetallicRoughness" : {
                "baseColorFactor" : [
                    0.05126940459012985,
                    0.05126941576600075,
                    0.05126946046948433,
                    1
                ],
                "metallicFactor" : 0,
                "roughnessFactor" : 0.5
            }
        }
    ],
    "meshes" : [
        {
            "name" : "Sphere",
            "primitives" : [
                {
                    "attributes" : {
                        "POSITION" : 0,
                        "NORMAL" : 1
                    },
                    "indices" : 2,
                    "material" : 0
                }
            ]
        }
    ],
    "accessors" : [
        {
            "bufferView" : 0,
            "componentType" : 5126,
            "count" : 424,
            "max" : [
                2.0691990852355957,
                6.155758857727051,
                2.0691981315612793
            ],
            "min" : [
                -2.069197177886963,
                4.76837158203125e-07,
                -2.0691981315612793
            ],
            "type" : "VEC3"
        },
        {
            "bufferView" : 1,
            "componentType" : 5126,
            "count" : 424,
            "type" : "VEC3"
        },
        {
            "bufferView" : 2,
            "componentType" : 5123,
            "count" : 636,
            "type" : "SCALAR"
        }
    ],
    "bufferViews" : [
        {
            "buffer" : 0,
            "byteLength" : 5088,
            "byteOffset" : 0,
            "target" : 34962
        },
        {
            "buffer" : 0,
            "byteLength" : 5088,
            "byteOffset" : 5088,
            "target" : 34962
        },
        {
            "buffer" : 0,
            "byteLength" : 1272,
            "byteOffset" : 10176,
            "target" : 34963
        }
    ],
    "buffers" : [
        {
            "byteLength" : 11448,
            "uri" : "data:application/octet-stream;base64,"
        }
    ]
}
