{
    "asset" : {
        "generator" : "Khronos glTF Blender I/O v3.4.50",
        "version" : "2.0"
    },
    "scene" : 0,
    "scenes" : [
        {
            "name" : "Scene",
            "nodes" : [
                0
            ]
        }
    ],
    "nodes" : [
        {
            "mesh" : 0,
            "name" : "Rook.001",
            "scale" : [
                1.3333332538604736,
                1.3333332538604736,
                1.3333332538604736
            ]
        }
    ],
    "materials" : [
        {
            "doubleSided" : true,
            "name" : "Material",
            "pbrMetallicRoughness" : {
                "baseColorFactor" : [
                    0.8387982249259949,
                    0.8387984037399292,
                    0.8387991189956665,
                    1
                ],
                "metallicFactor" : 0,
                "roughnessFactor" : 0.5
            }
        }
    ],
    "meshes" : [
        {
            "name" : "Cylinder",
            "primitives" : [
                {
                    "attributes" : {
                        "POSITION" : 0,
                        "NORMAL" : 1
                    },
                    "indices" : 2,
                    "material" : 0
                }
            ]
        }
    ],
    "accessors" : [
        {
            "bufferView" : 0,
            "componentType" : 5126,
            "count" : 1194,
            "max" : [
                1.5,
                4.319910049438477,
                1.5000004768371582
            ],
            "min" : [
                -1.5,
                0,
                -1.4999995231628418
            ],
            "type" : "VEC3"
        },
        {
            "bufferView" : 1,
            "componentType" : 5126,
            "count" : 1194,
            "type" : "VEC3"
        },
        {
            "bufferView" : 2,
            "componentType" : 5123,
            "count" : 1860,
            "type" : "SCALAR"
        }
    ],
    "bufferViews" : [
        {
            "buffer" : 0,
            "byteLength" : 14328,
            "byteOffset" : 0,
            "target" : 34962
        },
        {
            "buffer" : 0,
            "byteLength" : 14328,
            "byteOffset" : 14328,
            "target" : 34962
        },
        {
            "buffer" : 0,
            "byteLength" : 3720,
            "byteOffset" : 28656,
            "target" : 34963
        }
    ],
    "buffers" : [
        {
            "byteLength" : 32376,
            "uri" : "data:application/octet-stream;base64,"
        }
    ]
}
